<svg aria-hidden="true" style="position: absolute; width: 0; height: 0; overflow: hidden;" version="1.1" xmlns="http://www.w3.org/2000/svg" xmlns:xlink="http://www.w3.org/1999/xlink">
<defs>

<symbol id="icon-icon_maca_peruana_disfuncao" viewBox="0 0 32 32">
<path fill="none" stroke="#fdde9b" style="stroke: var(--color1, #fdde9b)" stroke-linejoin="miter" stroke-linecap="round" stroke-miterlimit="4" stroke-width="0.3678" d="M32 16c0 8.735-7.081 15.816-15.816 15.816s-15.816-7.081-15.816-15.816c0-8.735 7.081-15.816 15.816-15.816s15.816 7.081 15.816 15.816z"></path>
<path fill="#fdde9b" style="fill: var(--color1, #fdde9b)" d="M31.080 16.184c0 8.126-6.587 14.713-14.713 14.713s-14.713-6.587-14.713-14.713c0-8.126 6.587-14.713 14.713-14.713s14.713 6.587 14.713 14.713z"></path>
<path fill="#b86f28" style="fill: var(--color2, #b86f28)" d="M20.645 8.845c-0.237 0.037-0.626 0.16-0.834 0.265-0.645 0.325-1.096 0.887-1.287 1.604-0.065 0.244-0.065 0.246-0.065 2.56v2.315l0.081 0.259c0.096 0.307 0.189 0.519 0.304 0.689 0.078 0.115 0.082 0.134 0.057 0.272-0.054 0.295 0.062 0.638 0.291 0.867 0.263 0.263 0.524 0.333 1.083 0.287 1.733-0.141 2.912-0.846 3.305-1.978 0.155-0.446 0.16-0.541 0.15-2.86l-0.009-2.137-0.076-0.279c-0.31-1.133-1.238-1.84-2.467-1.878-0.198-0.006-0.437 0.001-0.532 0.015zM16.322 10.743c-0.46 0.163-0.98 0.219-2.263 0.243-1.299 0.024-1.639 0.074-2.114 0.306-0.329 0.161-0.627 0.457-0.801 0.794-0.070 0.136-0.14 0.237-0.165 0.237-0.088 0-0.32 0.143-0.435 0.268-0.15 0.163-0.219 0.298-0.307 0.603-0.107 0.37-0.137 0.732-0.127 1.53 0.009 0.698 0.011 0.723 0.082 0.874l0.072 0.155 0.084-0.134c0.104-0.165 0.247-0.267 0.439-0.312 0.169-0.040 0.163-0.025 0.207-0.492 0.030-0.319 0.1-0.474 0.274-0.606 0.246-0.188 0.535-0.204 0.845-0.048 0.659 0.332 1.085 0.4 2.736 0.433 1.248 0.025 1.358 0.036 1.778 0.176 0.389 0.129 0.763 0.456 0.945 0.826 0.086 0.175 0.096 0.169 0.182-0.106 0.048-0.153 0.057-0.263 0.057-0.676-0-0.762-0.061-1.149-0.259-1.649l-0.091-0.23 0.086-0.141c0.296-0.484 0.296-1.166-0.002-1.611-0.070-0.105-0.114-0.143-0.176-0.15-0.15-0.017-0.218 0.020-0.309 0.168-0.079 0.129-0.294 0.345-0.343 0.345-0.011 0-0.002-0.068 0.020-0.15 0.048-0.186 0.049-0.538 0.002-0.6-0.046-0.060-0.148-0.113-0.213-0.11-0.029 0.001-0.121 0.026-0.205 0.056zM21.017 11.533c0.1 0.048 0.244 0.155 0.345 0.255 0.131 0.131 0.207 0.182 0.311 0.21 0.485 0.132 0.817 0.45 0.988 0.947 0.066 0.193 0.078 0.274 0.078 0.543-0 0.521-0.156 0.97-0.481 1.386l-0.158 0.202 0.112 0.034c0.198 0.059 0.262 0.245 0.135 0.393-0.079 0.092-0.134 0.094-0.653 0.027-0.513-0.066-0.503-0.055-0.503-0.636v-0.448l0.084-0.072c0.068-0.058 0.104-0.069 0.187-0.056 0.146 0.023 0.203 0.107 0.203 0.295 0 0.085 0.011 0.155 0.025 0.155 0.074 0 0.354-0.421 0.452-0.679 0.161-0.429 0.152-0.848-0.028-1.176-0.083-0.152-0.292-0.36-0.362-0.36-0.013 0-0.036 0.090-0.053 0.201-0.080 0.538-0.475 0.946-1.005 1.040-0.489 0.086-1.022-0.196-1.251-0.662-0.089-0.18-0.093-0.205-0.093-0.52 0-0.302 0.007-0.345 0.078-0.491 0.148-0.301 0.371-0.505 0.684-0.627 0.132-0.052 0.206-0.060 0.446-0.053 0.247 0.008 0.312 0.021 0.459 0.091zM20.227 11.982c-0.168 0.076-0.249 0.154-0.334 0.32-0.080 0.157-0.094 0.425-0.030 0.579 0.137 0.328 0.502 0.506 0.838 0.408 0.536-0.156 0.691-0.845 0.27-1.204-0.198-0.17-0.505-0.212-0.745-0.103zM11.61 14.572c-0.091 0.044-0.116 0.121-0.15 0.461-0.033 0.325-0.082 0.482-0.185 0.594-0.078 0.085-0.22 0.148-0.333 0.148-0.059 0-0.107 0.027-0.159 0.088-0.072 0.086-0.074 0.1-0.074 0.482 0 0.489 0.038 0.833 0.13 1.18 0.26 0.983 0.959 1.726 1.947 2.071 0.388 0.135 0.701 0.186 1.158 0.187 0.597 0.001 1.060-0.102 1.556-0.346 0.855-0.421 1.42-1.159 1.626-2.124 0.036-0.17 0.061-0.437 0.073-0.781 0.016-0.456 0.012-0.538-0.032-0.647-0.114-0.284-0.383-0.54-0.678-0.645-0.333-0.118-0.48-0.132-1.682-0.157-1.668-0.034-2.167-0.115-2.868-0.464-0.175-0.087-0.231-0.096-0.328-0.048zM13.514 16.134c0.065 0.065 0.071 0.092 0.071 0.346s-0.005 0.281-0.071 0.346c-0.087 0.087-0.239 0.094-0.336 0.016-0.064-0.052-0.068-0.074-0.068-0.362s0.004-0.31 0.068-0.362c0.097-0.078 0.249-0.071 0.336 0.016zM14.69 16.081c0.085 0.033 0.131 0.171 0.131 0.399s-0.045 0.366-0.131 0.399c-0.1 0.038-0.218 0.017-0.288-0.053-0.065-0.065-0.071-0.092-0.071-0.346s0.005-0.281 0.071-0.346c0.069-0.069 0.188-0.091 0.288-0.053zM14.393 17.823c0.192 0.088 0.386 0.255 0.411 0.355 0.025 0.098-0.048 0.228-0.152 0.271-0.101 0.042-0.175 0.023-0.289-0.073-0.171-0.144-0.413-0.195-0.597-0.125-0.044 0.017-0.148 0.077-0.23 0.133-0.12 0.082-0.165 0.098-0.23 0.082-0.162-0.040-0.25-0.204-0.18-0.335 0.071-0.133 0.288-0.281 0.531-0.362 0.185-0.061 0.543-0.035 0.737 0.053zM15.229 20.081c-0.465 0.168-1.169 0.244-1.702 0.183-0.331-0.038-0.411-0.055-0.785-0.167l-0.253-0.076-0.121 0.129c-0.066 0.071-0.185 0.173-0.265 0.225s-0.148 0.099-0.154 0.104c-0.022 0.017 0.188 0.29 0.342 0.444 0.292 0.292 0.677 0.517 1.063 0.623 0.143 0.039 0.291 0.051 0.633 0.050 0.411-0.001 0.464-0.007 0.676-0.081 0.473-0.164 0.822-0.406 1.124-0.78 0.102-0.126 0.185-0.237 0.185-0.246s-0.055-0.048-0.122-0.085c-0.067-0.037-0.193-0.141-0.28-0.229l-0.158-0.161-0.182 0.066zM11.14 20.754c-1.020 0.315-1.304 0.445-1.617 0.74-0.367 0.347-0.511 0.766-0.511 1.49v0.388l0.168 0.168h9.557l0.175-0.175-0.016-0.48c-0.023-0.721-0.126-1.005-0.494-1.372-0.337-0.336-0.676-0.484-1.914-0.839-0.029-0.008-0.087 0.053-0.173 0.182-0.162 0.246-0.505 0.594-0.744 0.755s-0.594 0.327-0.881 0.41c-0.203 0.059-0.289 0.066-0.747 0.065-0.478-0.001-0.537-0.007-0.77-0.079-0.286-0.088-0.586-0.232-0.84-0.402-0.229-0.154-0.575-0.506-0.733-0.746-0.070-0.107-0.141-0.193-0.157-0.191s-0.153 0.041-0.303 0.087z"></path>
</symbol>

<symbol id="icon-icon_maca_peruana_humor" viewBox="0 0 32 32">
<path fill="none" stroke="#fdde9b" style="stroke: var(--color1, #fdde9b)" stroke-linejoin="miter" stroke-linecap="round" stroke-miterlimit="4" stroke-width="0.3678" d="M32 16c0 8.735-7.081 15.816-15.816 15.816s-15.816-7.081-15.816-15.816c0-8.735 7.081-15.816 15.816-15.816s15.816 7.081 15.816 15.816z"></path>
<path fill="#fdde9b" style="fill: var(--color1, #fdde9b)" d="M31.080 15.816c0 8.126-6.587 14.713-14.713 14.713s-14.713-6.587-14.713-14.713c0-8.126 6.587-14.713 14.713-14.713s14.713 6.587 14.713 14.713z"></path>
<path fill="#b86f28" style="fill: var(--color2, #b86f28)" d="M15.493 8.483c-1.637 0.22-3.095 0.918-4.248 2.034-1.222 1.182-2.010 2.789-2.199 4.481-0.019 0.171-0.035 0.537-0.035 0.812 0 1.159 0.24 2.21 0.739 3.231 1.121 2.294 3.295 3.815 5.863 4.102 0.564 0.063 1.536 0.023 2.119-0.087 2.293-0.433 4.221-1.903 5.263-4.013 0.848-1.717 0.98-3.745 0.363-5.589-0.358-1.072-0.953-2.024-1.778-2.85-1.067-1.067-2.372-1.759-3.849-2.040-0.404-0.077-0.591-0.092-1.237-0.102-0.418-0.006-0.87 0.003-1.003 0.021zM14.179 12.931c0.119 0.042 0.238 0.125 0.382 0.268 0.239 0.238 0.327 0.447 0.327 0.781 0 0.778-0.826 1.316-1.525 0.994-0.92-0.424-0.891-1.665 0.048-2.040 0.194-0.078 0.55-0.079 0.769-0.002zM19.35 12.938c0.59 0.224 0.871 0.904 0.609 1.472-0.159 0.345-0.383 0.531-0.754 0.626-0.265 0.068-0.461 0.043-0.746-0.094-0.49-0.236-0.724-0.828-0.537-1.362 0.078-0.223 0.411-0.564 0.631-0.646 0.217-0.081 0.579-0.079 0.797 0.004zM20.024 17.392c-0.035 0.142-0.335 0.759-0.479 0.982-0.71 1.105-1.8 1.781-2.983 1.851-1.276 0.076-2.538-0.608-3.324-1.802-0.168-0.255-0.473-0.869-0.513-1.031l-0.023-0.095h7.344l-0.023 0.095z"></path>
</symbol>

<symbol id="icon-icon_maca_peruana_desempenho" viewBox="0 0 32 32">
<path fill="none" stroke="#fdde9b" style="stroke: var(--color1, #fdde9b)" stroke-linejoin="miter" stroke-linecap="round" stroke-miterlimit="4" stroke-width="0.3678" d="M32 16c0 8.735-7.081 15.816-15.816 15.816s-15.816-7.081-15.816-15.816c0-8.735 7.081-15.816 15.816-15.816s15.816 7.081 15.816 15.816z"></path>
<path fill="#fdde9b" style="fill: var(--color1, #fdde9b)" d="M31.080 16.184c0 8.126-6.587 14.713-14.713 14.713s-14.713-6.587-14.713-14.713c0-8.126 6.587-14.713 14.713-14.713s14.713 6.587 14.713 14.713z"></path>
<path fill="#b86f28" style="fill: var(--color2, #b86f28)" d="M16.194 8.859c-0.575 0.169-0.932 0.717-0.834 1.281 0.065 0.371 0.317 0.702 0.655 0.861 0.146 0.068 0.199 0.077 0.467 0.077 0.283 0 0.315-0.006 0.492-0.093 0.853-0.42 0.847-1.637-0.010-2.046-0.228-0.109-0.555-0.142-0.77-0.079zM14.549 11.157c-0.176 0.058-0.347 0.2-0.434 0.36-0.128 0.236-1.232 3.166-1.265 3.357-0.038 0.217 0.024 0.454 0.157 0.606 0.169 0.193 0.283 0.228 1.476 0.45l1.108 0.207-0 0.073c-0 0.040-0.058 0.609-0.129 1.265s-0.129 1.251-0.129 1.325c0 0.085 0.026 0.185 0.072 0.275 0.251 0.496 1.010 0.412 1.134-0.126 0.017-0.074 0.109-0.856 0.204-1.739 0.19-1.768 0.19-1.757 0.024-1.959-0.131-0.159-0.257-0.207-0.803-0.307-0.275-0.050-0.509-0.1-0.52-0.109s0.031-0.139 0.093-0.288 0.113-0.283 0.113-0.298c0-0.015-0.15-0.346-0.334-0.736-0.374-0.796-0.435-0.933-0.379-0.866 0.522 0.631 1.224 1.45 1.28 1.494 0.166 0.131 0.212 0.131 1.378 0.001 0.91-0.101 1.111-0.131 1.219-0.185 0.386-0.191 0.379-0.714-0.013-0.908l-0.143-0.071-0.864 0.096c-0.475 0.053-0.903 0.102-0.952 0.11-0.084 0.013-0.111-0.013-0.6-0.595-0.281-0.335-0.507-0.613-0.502-0.618s0.159 0.096 0.341 0.226c0.182 0.129 0.409 0.29 0.504 0.356l0.173 0.121 0.618-0.072c0.34-0.040 0.628-0.075 0.64-0.079s-0.68-0.316-1.539-0.694c-1.633-0.719-1.705-0.744-1.927-0.67zM18.912 11.797c-0.047 0.025-0.102 0.062-0.121 0.080-0.028 0.028-0.239 0.543-0.239 0.583 0 0.007 0.039 0.012 0.087 0.012 0.101 0 0.414 0.1 0.5 0.16 0.032 0.023 0.067 0.041 0.077 0.041s0.061-0.117 0.112-0.259c0.11-0.305 0.105-0.426-0.024-0.554-0.103-0.103-0.27-0.13-0.394-0.064zM21.472 12.095c-0.093 0.058-0.396 0.328-0.722 0.644l-0.204 0.198-0.409-0.060c-0.558-0.082-0.534-0.084-0.576 0.065-0.029 0.104-0.027 0.151 0.014 0.293 0.048 0.165 0.047 0.448-0.001 0.568-0.017 0.042-0.005 0.050 0.072 0.050 0.113 0 0.112 0.003-0.095 0.322-0.086 0.133-0.215 0.357-0.287 0.499-0.152 0.298-0.171 0.437-0.133 0.999 0.023 0.344 0.101 0.867 0.138 0.936 0.012 0.023 0.036-0.029 0.058-0.129 0.157-0.705 0.602-1.654 1.072-2.29l0.145-0.196 0.265 0.019c0.316 0.023 0.436-0.008 0.557-0.145 0.161-0.184 0.189-0.466 0.061-0.629-0.031-0.039-0.056-0.082-0.056-0.096s0.122-0.132 0.271-0.263c0.253-0.223 0.362-0.367 0.362-0.478 0-0.1-0.087-0.248-0.178-0.303-0.119-0.072-0.242-0.074-0.354-0.005zM18.273 14.579l-0.237 0.028-0.019 0.099c-0.033 0.173 0.009 1.302 0.059 1.621 0.114 0.715 0.228 1.086 0.748 2.412 0.2 0.512 0.359 0.935 0.353 0.941s-0.107-0.005-0.224-0.024l-0.213-0.035-0.2-0.513c-0.139-0.356-0.206-0.497-0.219-0.46-0.010 0.029-0.036 0.23-0.056 0.446s-0.047 0.409-0.058 0.428c-0.016 0.026-0.162 0.016-0.607-0.042-0.322-0.042-0.613-0.082-0.646-0.089-0.044-0.009-0.082 0.017-0.142 0.096-0.045 0.060-0.133 0.147-0.194 0.193l-0.112 0.084 0.171 0.017c0.203 0.020 0.323 0.095 0.394 0.245 0.095 0.201 0.014 0.428-0.192 0.535-0.099 0.051-0.135 0.052-0.923 0.012-0.898-0.046-0.954-0.058-1.057-0.228-0.068-0.112-0.073-0.306-0.012-0.426 0.054-0.104 0.2-0.198 0.308-0.198 0.043-0 0.079-0.004 0.079-0.009s-0.060-0.072-0.133-0.148-0.164-0.207-0.203-0.291c-0.078-0.17-0.056-0.161-0.499-0.216-0.15-0.019-0.277-0.038-0.282-0.042s0.076-0.274 0.18-0.6c0.104-0.326 0.189-0.641 0.189-0.7 0-0.099-0.115-1.284-0.125-1.29-0.014-0.008-1.213-0.236-1.218-0.232-0.003 0.003 0.027 0.33 0.068 0.727l0.073 0.722-0.181 0.572c-0.099 0.314-0.192 0.58-0.207 0.59s-0.101 0.026-0.192 0.035c-0.405 0.042-0.879 0.288-1.226 0.635-0.362 0.362-0.567 0.768-0.647 1.284-0.091 0.588 0.13 1.317 0.54 1.778l0.159 0.178-0.176 0.183c-0.252 0.262-0.287 0.38-0.16 0.531 0.086 0.102 0.233 0.141 0.333 0.088 0.037-0.020 0.167-0.132 0.288-0.249l0.22-0.213 0.115 0.059c0.208 0.106 0.57 0.182 0.867 0.182s1.031-0.101 4.127-0.57l1.81-0.274 0.488 0.506c0.268 0.278 0.526 0.526 0.574 0.551 0.159 0.082 0.325 0.011 0.393-0.169 0.048-0.127-0.002-0.206-0.389-0.605l-0.361-0.372 0.163-0.066c0.447-0.181 0.746-0.56 0.823-1.042 0.066-0.411-0.086-0.866-0.384-1.147-0.084-0.079-0.174-0.156-0.202-0.171-0.053-0.030-0.893-2.14-1.075-2.701-0.225-0.695-0.31-1.311-0.294-2.14l0.010-0.549-0.115 0.004c-0.063 0.002-0.221 0.016-0.352 0.032zM13.495 19.777c0.667 0.206 1.070 0.903 0.914 1.58-0.081 0.35-0.399 0.747-0.724 0.903-0.743 0.357-1.621-0.024-1.864-0.81-0.144-0.467-0.014-0.99 0.335-1.338s0.871-0.48 1.338-0.335z"></path>
</symbol>

<symbol id="icon-icon_maca_peruana_menopausa" viewBox="0 0 32 32">
<path fill="none" stroke="#fdde9b" style="stroke: var(--color1, #fdde9b)" stroke-linejoin="miter" stroke-linecap="round" stroke-miterlimit="4" stroke-width="0.3678" d="M32 16c0 8.735-7.081 15.816-15.816 15.816s-15.816-7.081-15.816-15.816c0-8.735 7.081-15.816 15.816-15.816s15.816 7.081 15.816 15.816z"></path>
<path fill="#fdde9b" style="fill: var(--color1, #fdde9b)" d="M31.080 16.184c0 8.126-6.587 14.713-14.713 14.713s-14.713-6.587-14.713-14.713c0-8.126 6.587-14.713 14.713-14.713s14.713 6.587 14.713 14.713z"></path>
<path fill="#b86f28" style="fill: var(--color2, #b86f28)" d="M15.448 8.959c-0.029 0.184-0.209 0.556-0.347 0.72l-0.116 0.138v1.646l0.156 0.156h2.225l0.156-0.156v-1.646l-0.116-0.138c-0.138-0.164-0.317-0.536-0.347-0.72l-0.021-0.131h-1.569l-0.021 0.131zM14.272 10.254c-0.087 0.032-0.191 0.060-0.23 0.061-0.070 0.002-0.071 0.008-0.071 0.441v0.438l-0.273 0.362c-0.15 0.199-0.318 0.455-0.373 0.568-0.090 0.187-0.099 0.234-0.098 0.507 0.001 0.374 0.056 0.508 0.388 0.962 0.13 0.177 0.263 0.375 0.297 0.441l0.061 0.119h4.563l0.061-0.119c0.034-0.065 0.167-0.264 0.297-0.441 0.332-0.454 0.386-0.588 0.388-0.962 0.001-0.274-0.008-0.32-0.098-0.507-0.055-0.113-0.222-0.369-0.373-0.568l-0.273-0.362v-0.438c0-0.405-0.004-0.438-0.058-0.438-0.032 0-0.141-0.029-0.243-0.063s-0.189-0.063-0.195-0.063c-0.006 0-0.011 0.287-0.011 0.638 0 0.409-0.014 0.685-0.039 0.769-0.051 0.174-0.314 0.437-0.488 0.488-0.183 0.054-2.314 0.054-2.497 0-0.174-0.051-0.437-0.314-0.488-0.488-0.025-0.084-0.039-0.36-0.039-0.769 0-0.351-0.011-0.637-0.024-0.636s-0.095 0.029-0.182 0.061zM12.912 10.385c-0.197 0.046-0.485 0.216-0.625 0.368-0.071 0.077-0.175 0.236-0.23 0.352l-0.1 0.212-0.021 1.316h0.758l0.021-0.19c0.043-0.38 0.151-0.615 0.498-1.082l0.25-0.336v-0.675l-0.214 0.003c-0.118 0.002-0.269 0.016-0.337 0.032zM19.043 11.024l0.25 0.336c0.347 0.467 0.455 0.702 0.498 1.082l0.021 0.19h0.758l-0.021-1.319-0.118-0.239c-0.22-0.446-0.593-0.688-1.105-0.717l-0.283-0.016v0.684zM10.664 14.401c-0.082 0.083-0.149 0.165-0.149 0.182s0.125 0.155 0.277 0.308l0.277 0.278h-2.424v0.507h2.424l-0.568 0.571 0.365 0.364 0.538-0.541c0.484-0.486 0.538-0.552 0.538-0.648s-0.055-0.162-0.53-0.64c-0.291-0.293-0.545-0.533-0.564-0.533s-0.101 0.068-0.184 0.152zM21.095 14.783c-0.475 0.478-0.53 0.544-0.53 0.64s0.055 0.162 0.538 0.648l0.538 0.541 0.365-0.364-0.568-0.571h2.424v-0.507h-2.424l0.277-0.278c0.152-0.153 0.277-0.293 0.277-0.31 0-0.041-0.293-0.331-0.335-0.331-0.017 0-0.27 0.24-0.562 0.533zM14.185 14.812c0.029 0.191 0.030 1.094 0.001 1.252l-0.022 0.119h4.177l-0.022-0.119c-0.029-0.158-0.028-1.062 0.001-1.252l0.023-0.151h-4.183l0.023 0.151zM12.148 16.722l-0.112 0.221 0.225 0.113c0.124 0.062 0.229 0.109 0.234 0.104s0.060-0.112 0.122-0.236l0.113-0.226-0.215-0.099c-0.118-0.055-0.224-0.099-0.236-0.099s-0.071 0.1-0.132 0.221zM19.988 16.601l-0.213 0.097 0.113 0.226c0.062 0.124 0.117 0.231 0.122 0.236s0.11-0.041 0.234-0.104l0.225-0.113-0.112-0.221c-0.061-0.122-0.122-0.221-0.135-0.22s-0.119 0.045-0.236 0.099zM13.7 17.285c-0.169 0.327-0.355 0.712-0.413 0.855-0.235 0.58-0.353 1.286-0.322 1.928 0.014 0.293 0.346 2.775 0.451 3.369l0.018 0.103 2.327-0.017 0.113-2.050c0.096-1.745 0.121-2.062 0.167-2.132 0.098-0.149 0.325-0.149 0.423 0 0.046 0.070 0.070 0.386 0.167 2.132l0.113 2.050 2.325 0.017 0.018-0.088c0.010-0.048 0.114-0.751 0.232-1.562 0.203-1.4 0.214-1.503 0.213-2.045-0.002-0.927-0.125-1.377-0.667-2.441l-0.355-0.698-4.502-0.016-0.307 0.595zM11.787 17.43c-0.040 0.048-0.195 0.39-0.195 0.43 0 0.027 0.44 0.21 0.457 0.19 0.052-0.060 0.181-0.416 0.158-0.436-0.016-0.014-0.109-0.071-0.207-0.125-0.145-0.081-0.185-0.092-0.213-0.058zM20.494 17.497c-0.1 0.056-0.192 0.112-0.203 0.123-0.017 0.017 0.126 0.384 0.167 0.431 0.018 0.021 0.456-0.163 0.456-0.192 0-0.042-0.148-0.356-0.195-0.413-0.040-0.048-0.058-0.044-0.226 0.050zM11.325 18.643c-0.031 0.132-0.050 0.246-0.042 0.254s0.117 0.034 0.243 0.058c0.169 0.032 0.232 0.034 0.241 0.007 0.044-0.13 0.105-0.417 0.092-0.43-0.024-0.024-0.371-0.129-0.428-0.129-0.036-0-0.065 0.066-0.106 0.239zM20.829 18.463c-0.091 0.029-0.172 0.061-0.181 0.069-0.013 0.013 0.047 0.298 0.091 0.43 0.009 0.027 0.071 0.025 0.241-0.007 0.126-0.024 0.235-0.050 0.243-0.058s-0.011-0.122-0.042-0.254c-0.064-0.272-0.066-0.273-0.352-0.18zM11.18 19.991l0.491-0.018 0.018-0.483-0.148-0.020c-0.082-0.011-0.196-0.020-0.255-0.020h-0.107v0.542zM20.938 19.472l-0.119 0.012v0.232c0 0.27 0.001 0.271 0.304 0.271h0.203v-0.539l-0.135 0.005c-0.074 0.003-0.188 0.011-0.254 0.018zM11.396 20.493c-0.082 0.011-0.155 0.027-0.162 0.035s0.002 0.126 0.020 0.262c0.032 0.242 0.034 0.247 0.114 0.232 0.045-0.009 0.158-0.025 0.252-0.037l0.17-0.021-0.021-0.179c-0.012-0.098-0.029-0.211-0.038-0.25-0.018-0.077-0.052-0.081-0.334-0.042zM20.778 20.533c-0.010 0.041-0.027 0.154-0.039 0.252l-0.021 0.178 0.186 0.022c0.102 0.012 0.216 0.029 0.253 0.038 0.062 0.015 0.069-0.001 0.090-0.198 0.013-0.118 0.030-0.232 0.038-0.253 0.018-0.047-0.040-0.066-0.295-0.093-0.185-0.020-0.195-0.017-0.212 0.053zM11.55 21.512c-0.085 0.014-0.16 0.032-0.167 0.039s0.003 0.124 0.023 0.259l0.037 0.245 0.099-0.017c0.054-0.009 0.168-0.027 0.252-0.038 0.151-0.021 0.153-0.023 0.136-0.121-0.009-0.054-0.026-0.167-0.038-0.25-0.024-0.168-0.028-0.17-0.342-0.117zM20.614 21.687c-0.013 0.118-0.030 0.232-0.038 0.253-0.010 0.026 0.064 0.050 0.23 0.074 0.134 0.020 0.249 0.031 0.255 0.026 0.017-0.017 0.075-0.34 0.075-0.419s-0.034-0.092-0.321-0.127l-0.178-0.021-0.023 0.215zM11.693 22.532c-0.136 0.021-0.196 0.043-0.185 0.070 0.008 0.021 0.025 0.136 0.038 0.254l0.023 0.215 0.147-0.020c0.081-0.011 0.194-0.029 0.253-0.039l0.106-0.018-0.021-0.178c-0.032-0.269-0.050-0.321-0.107-0.317-0.029 0.002-0.142 0.018-0.252 0.035zM20.493 22.514c-0.009 0.015-0.027 0.129-0.039 0.253l-0.022 0.225 0.186 0.022c0.102 0.012 0.209 0.029 0.238 0.037 0.065 0.019 0.079-0.019 0.107-0.279 0.025-0.237 0.036-0.227-0.274-0.264-0.098-0.011-0.186-0.009-0.196 0.007z"></path>
</symbol>

<symbol id="icon-icon_maca_peruana_coracao" viewBox="0 0 32 32">
<path fill="none" stroke="#fdde9b" style="stroke: var(--color1, #fdde9b)" stroke-linejoin="miter" stroke-linecap="round" stroke-miterlimit="4" stroke-width="0.3678" d="M32 16c0 8.735-7.081 15.816-15.816 15.816s-15.816-7.081-15.816-15.816c0-8.735 7.081-15.816 15.816-15.816s15.816 7.081 15.816 15.816z"></path>
<path fill="#fdde9b" style="fill: var(--color1, #fdde9b)" d="M30.713 16.184c0 8.126-6.587 14.713-14.713 14.713s-14.713-6.587-14.713-14.713c0-8.126 6.587-14.713 14.713-14.713s14.713 6.587 14.713 14.713z"></path>
<path fill="#b86f28" style="fill: var(--color2, #b86f28)" d="M11.857 8.833c-1.884 0.166-3.237 0.935-3.872 2.204-0.452 0.901-0.563 2.069-0.315 3.303 0.094 0.465 0.325 1.040 0.635 1.576l0.061 0.105 2.349 0 0.020-0.235c0.011-0.129 0.071-1.043 0.133-2.031 0.123-1.965 0.12-1.944 0.338-2.127 0.302-0.254 0.781-0.173 0.967 0.164 0.037 0.067 0.48 1.386 0.986 2.931s0.928 2.821 0.94 2.835 0.259-0.914 0.549-2.062c0.307-1.213 0.555-2.132 0.593-2.193 0.075-0.122 0.284-0.253 0.452-0.284 0.235-0.043 0.547 0.117 0.661 0.338 0.024 0.046 0.193 0.658 0.377 1.359s0.342 1.274 0.353 1.274c0.011-0.001 0.151-0.221 0.312-0.489s0.345-0.537 0.41-0.596c0.191-0.175 0.504-0.21 0.74-0.084 0.042 0.023 0.242 0.193 0.443 0.379l0.366 0.337h0.678c0.639 0 0.686 0.004 0.821 0.073 0.079 0.040 0.188 0.129 0.242 0.198 0.092 0.115 0.099 0.144 0.099 0.379s-0.008 0.263-0.099 0.379c-0.055 0.069-0.164 0.158-0.242 0.198-0.137 0.070-0.176 0.073-0.985 0.073-0.564 0-0.885-0.013-0.973-0.039-0.077-0.023-0.209-0.112-0.322-0.216-0.108-0.1-0.202-0.164-0.217-0.147s-0.237 0.373-0.494 0.792c-0.513 0.838-0.59 0.94-0.765 1.024-0.183 0.087-0.499 0.052-0.655-0.072-0.17-0.135-0.231-0.289-0.445-1.122-0.106-0.411-0.201-0.721-0.214-0.697s-0.239 0.901-0.502 1.951c-0.409 1.632-0.492 1.928-0.573 2.039-0.236 0.326-0.749 0.341-1.011 0.028-0.062-0.074-0.261-0.639-0.753-2.137-0.937-2.853-0.886-2.707-0.891-2.572-0.002 0.063-0.022 0.355-0.045 0.651-0.046 0.617-0.087 0.733-0.311 0.892l-0.138 0.097-2.265 0.032 0.229 0.276c0.686 0.826 1.724 1.889 3.318 3.4 0.503 0.477 1.237 1.183 1.63 1.569 0.75 0.737 0.93 0.873 1.241 0.938 0.386 0.081 0.69-0.066 1.19-0.575 0.181-0.185 0.768-0.754 1.304-1.264 3.035-2.893 4.286-4.27 5.104-5.619 0.521-0.86 0.737-1.494 0.821-2.41 0.060-0.653 0.036-1.127-0.084-1.689-0.24-1.119-0.945-2.025-1.976-2.542-0.732-0.367-1.699-0.589-2.549-0.586-1.233 0.004-2.442 0.498-3.34 1.365l-0.329 0.318-0.329-0.318c-0.862-0.832-1.993-1.313-3.211-1.366-0.17-0.007-0.374-0.007-0.455-0z"></path>
</symbol>

<symbol id="icon-icon_maca_peruana_emagrecer" viewBox="0 0 32 32">
<path fill="none" stroke="#fdde9b" style="stroke: var(--color1, #fdde9b)" stroke-linejoin="miter" stroke-linecap="round" stroke-miterlimit="4" stroke-width="0.3678" d="M32 16c0 8.735-7.081 15.816-15.816 15.816s-15.816-7.081-15.816-15.816c0-8.735 7.081-15.816 15.816-15.816s15.816 7.081 15.816 15.816z"></path>
<path fill="#fdde9b" style="fill: var(--color1, #fdde9b)" d="M30.713 16.184c0 8.126-6.587 14.713-14.713 14.713s-14.713-6.587-14.713-14.713c0-8.126 6.587-14.713 14.713-14.713s14.713 6.587 14.713 14.713z"></path>
<path fill="#b86f28" style="fill: var(--color2, #b86f28)" d="M12.328 8.875c-0.145 0.071-0.222 0.2-0.222 0.369 0 0.079 0.068 0.428 0.15 0.776s0.17 0.787 0.195 0.977c0.053 0.405 0.061 1.262 0.015 1.638-0.071 0.584-0.235 1.244-0.433 1.742-0.063 0.159-0.115 0.3-0.115 0.314 0 0.037 0.524 0.325 0.879 0.484 2.023 0.906 4.37 0.909 6.383 0.010 0.359-0.16 0.899-0.458 0.899-0.495 0-0.013-0.053-0.157-0.117-0.319-0.347-0.876-0.515-1.946-0.456-2.9 0.032-0.519 0.082-0.82 0.257-1.56 0.079-0.332 0.143-0.635 0.143-0.673 0-0.124-0.109-0.292-0.229-0.353-0.112-0.057-0.162-0.058-3.685-0.057-3.231 0.001-3.581 0.005-3.666 0.047zM8.867 12.363c-0.192 0.101-0.274 0.358-0.177 0.553 0.025 0.051 0.274 0.322 0.553 0.602l0.507 0.51h-0.382c-0.326 0-0.398 0.008-0.495 0.058-0.128 0.065-0.229 0.231-0.229 0.373s0.102 0.308 0.229 0.373c0.107 0.055 0.168 0.058 1.064 0.058s0.957-0.003 1.064-0.058c0.073-0.037 0.134-0.098 0.171-0.171 0.055-0.107 0.058-0.168 0.058-1.064s-0.003-0.957-0.058-1.064c-0.065-0.128-0.231-0.229-0.373-0.229s-0.308 0.102-0.373 0.229c-0.049 0.097-0.058 0.169-0.058 0.495v0.382l-0.51-0.507c-0.281-0.279-0.551-0.528-0.602-0.553-0.122-0.061-0.257-0.056-0.389 0.013zM20.994 12.363c-0.066 0.035-0.13 0.101-0.165 0.17-0.054 0.107-0.058 0.168-0.058 1.066 0 0.917 0.002 0.957 0.061 1.061 0.033 0.060 0.11 0.136 0.169 0.169 0.104 0.059 0.144 0.061 1.061 0.061 0.898 0 0.959-0.003 1.066-0.058 0.128-0.065 0.229-0.231 0.229-0.373s-0.102-0.308-0.229-0.373c-0.097-0.049-0.169-0.058-0.495-0.058h-0.382l0.507-0.51c0.279-0.281 0.528-0.551 0.553-0.602 0.175-0.351-0.215-0.741-0.566-0.566-0.051 0.025-0.322 0.274-0.602 0.553l-0.51 0.507v-0.382c0-0.326-0.008-0.398-0.058-0.495-0.106-0.208-0.366-0.284-0.581-0.17zM16.202 14.086c0.128 0.065 0.229 0.231 0.229 0.373 0 0.22-0.212 0.431-0.433 0.431-0.134 0-0.311-0.112-0.374-0.236-0.106-0.208-0.040-0.435 0.164-0.558 0.138-0.083 0.266-0.086 0.415-0.010zM11.46 15.732c-0.121 0.314-0.267 0.827-0.344 1.204-0.074 0.362-0.142 0.925-0.112 0.938 0.011 0.005 0.161-0.018 0.332-0.051 1.555-0.3 3.173 0.090 4.442 1.070l0.223 0.172 0.223-0.172c0.334-0.258 0.604-0.425 0.993-0.613 1.081-0.522 2.288-0.683 3.44-0.46 0.166 0.032 0.315 0.059 0.332 0.059 0.041 0 0.003-0.372-0.089-0.856-0.081-0.425-0.222-0.936-0.358-1.292l-0.090-0.234-0.178 0.102c-1.183 0.677-2.597 1.073-4 1.121-1.582 0.054-3.243-0.359-4.574-1.137l-0.149-0.087-0.091 0.236zM11.862 18.616c-0.163 0.020-0.547 0.098-0.729 0.148l-0.169 0.046 0.019 0.246c0.030 0.379 0.094 0.805 0.177 1.174 0.078 0.35 0.898 2.9 0.993 3.087 0.034 0.067 0.096 0.129 0.168 0.165 0.11 0.056 0.167 0.058 1.681 0.058h1.567l-0.002-3.721-0.229-0.187c-0.574-0.467-1.25-0.788-2.002-0.95-0.216-0.047-0.406-0.063-0.826-0.070-0.3-0.005-0.591-0.004-0.647 0.003zM18.892 18.641c-0.879 0.143-1.723 0.537-2.356 1.098l-0.104 0.093v3.709h1.567c1.514 0 1.571-0.002 1.681-0.058 0.071-0.036 0.134-0.098 0.168-0.165 0.095-0.188 0.915-2.738 0.991-3.082 0.084-0.378 0.151-0.822 0.179-1.18l0.019-0.246-0.183-0.048c-0.446-0.118-0.597-0.137-1.146-0.149-0.403-0.009-0.632-0-0.815 0.029z"></path>
</symbol>
</defs>
</svg>
