<svg width="88" height="87" viewBox="0 0 88 87" fill="none" xmlns="http://www.w3.org/2000/svg">
<circle cx="44" cy="43.5" r="43" stroke="#FDDE9B" stroke-linecap="round" stroke-dasharray="6 6"/>
<path d="M84.5 44C84.5 66.0914 66.5914 84 44.5 84C22.4086 84 4.5 66.0914 4.5 44C4.5 21.9086 22.4086 4 44.5 4C66.5914 4 84.5 21.9086 84.5 44Z" fill="#FDDE9B"/>
<path fill-rule="evenodd" clip-rule="evenodd" d="M41.9985 24.3568C41.9186 24.8563 41.4311 25.8686 41.0559 26.3141L40.7405 26.6886V31.1626L41.1636 31.5858H47.2135L47.6366 31.1626V26.6886L47.3212 26.3141C46.946 25.8686 46.4585 24.8563 46.3786 24.3568L46.3215 24H42.0556L41.9985 24.3568ZM38.8009 27.8791C38.5638 27.9666 38.2827 28.0412 38.1759 28.0448C37.9845 28.0514 37.982 28.0668 37.982 29.2435V30.4355L37.2388 31.4201C36.8301 31.9616 36.3743 32.6569 36.226 32.965C35.981 33.474 35.9565 33.6004 35.9592 34.3443C35.9629 35.3617 36.1101 35.7268 37.0135 36.9604C37.366 37.4417 37.7288 37.981 37.8199 38.1587L37.9855 38.482H50.3916L50.5572 38.1587C50.6483 37.981 51.0111 37.4417 51.3636 36.9604C52.267 35.7268 52.4141 35.3617 52.4178 34.3443C52.4206 33.6004 52.3961 33.474 52.1511 32.965C52.0028 32.6569 51.5469 31.9616 51.1383 31.4201L50.3951 30.4355V29.2435C50.3951 28.1427 50.383 28.0515 50.2362 28.0515C50.1488 28.0515 49.8518 27.9739 49.5762 27.8791C49.3006 27.7843 49.0617 27.7067 49.0454 27.7067C49.0292 27.7067 49.0159 28.4877 49.0159 29.4423C49.0159 30.553 48.9781 31.3056 48.911 31.5327C48.7711 32.0062 48.057 32.7203 47.5835 32.8602C47.0856 33.0073 41.2915 33.0073 40.7936 32.8602C40.32 32.7203 39.6059 32.0062 39.466 31.5327C39.399 31.3056 39.3612 30.553 39.3612 29.4423C39.3612 28.4877 39.3321 27.7097 39.2966 27.7134C39.261 27.717 39.038 27.7916 38.8009 27.8791ZM35.1044 28.2336C34.5697 28.3591 33.7869 28.8198 33.4057 29.2334C33.2121 29.4434 32.931 29.8744 32.781 30.191L32.5081 30.7669L32.4499 34.3443H34.5117L34.5699 33.8286C34.6868 32.7959 34.9813 32.1559 35.9236 30.8867L36.6027 29.9721V28.1377L36.0209 28.1463C35.7008 28.1512 35.2884 28.1904 35.1044 28.2336ZM51.7743 29.9721L52.4534 30.8867C53.3958 32.1559 53.6903 32.7959 53.8072 33.8286L53.8654 34.3443H55.9271L55.8689 30.7572L55.547 30.1062C54.9477 28.8943 53.9346 28.2369 52.5436 28.1576L51.7743 28.1138V29.9721ZM28.9921 39.153C28.7688 39.3799 28.5859 39.6021 28.5859 39.647C28.5859 39.6918 28.9245 40.0687 29.3384 40.4845L30.0909 41.2405H23.5V42.6197H30.0909L28.5456 44.1722L29.5371 45.1627L31.0011 43.6921C32.3158 42.3715 32.465 42.192 32.465 41.9308C32.465 41.6697 32.3168 41.4907 31.0244 40.1902C30.2321 39.3929 29.5422 38.7406 29.4911 38.7406C29.4401 38.7406 29.2156 38.9262 28.9921 39.153ZM57.3527 40.1902C56.0603 41.4907 55.912 41.6697 55.912 41.9308C55.912 42.192 56.0613 42.3715 57.376 43.6921L58.84 45.1627L59.8315 44.1722L58.2862 42.6197H64.8771V41.2405H58.2862L59.0387 40.4845C59.4525 40.0687 59.7911 39.689 59.7911 39.6408C59.7911 39.528 58.994 38.7406 58.8797 38.7406C58.8321 38.7406 58.1449 39.3929 57.3527 40.1902ZM38.5655 40.2707C38.6452 40.7888 38.648 43.2463 38.5693 43.6757L38.5101 43.9989H49.867L49.8078 43.6757C49.7291 43.2463 49.7319 40.7888 49.8116 40.2707L49.8746 39.8612H38.5025L38.5655 40.2707ZM33.026 45.4631L32.7228 46.0652L33.3355 46.3737C33.6725 46.5434 33.959 46.6701 33.9723 46.6552C33.9856 46.6402 34.1349 46.3517 34.3039 46.0139L34.6114 45.3997L34.027 45.1303C33.7056 44.9821 33.4171 44.8609 33.3859 44.8609C33.3547 44.8609 33.1928 45.1319 33.026 45.4631ZM54.3427 45.1339L53.7647 45.3977L54.0727 46.013C54.242 46.3513 54.3915 46.6402 54.4048 46.6552C54.4181 46.6701 54.7046 46.5434 55.0416 46.3737L55.6543 46.0652L55.351 45.4631C55.1843 45.1319 55.0193 44.863 54.9843 44.8655C54.9493 44.868 54.6607 44.9888 54.3427 45.1339ZM37.2474 46.9939C36.7877 47.8832 36.2829 48.9287 36.1255 49.3172C35.4871 50.8937 35.1664 52.8127 35.2495 54.5587C35.2876 55.3557 36.1904 62.1032 36.4752 63.7187L36.5247 64L42.8524 63.9547L43.16 58.3819C43.4219 53.6364 43.4893 52.776 43.6137 52.5862C43.8798 52.1801 44.4973 52.1801 44.7634 52.5862C44.8878 52.776 44.9551 53.6364 45.2171 58.3819L45.5247 63.9547L51.8464 63.9999L51.8942 63.7618C51.9205 63.6309 52.204 61.72 52.5241 59.5153C53.0771 55.7079 53.1061 55.4291 53.1021 53.9553C53.0954 51.4346 52.7611 50.2113 51.2881 47.3177L50.3226 45.4213L38.0831 45.377L37.2474 46.9939ZM32.0466 47.3887C31.9391 47.5183 31.5168 48.449 31.5168 48.5565C31.5168 48.6298 32.7136 49.127 32.7598 49.0728C32.9 48.9084 33.2506 47.9414 33.1897 47.8872C33.1467 47.849 32.8933 47.6954 32.6266 47.546C32.2325 47.3251 32.1238 47.2956 32.0466 47.3887ZM55.7179 47.5705C55.4453 47.724 55.1972 47.8746 55.1666 47.9051C55.1217 47.9501 55.509 48.9479 55.6216 49.0772C55.6709 49.1338 56.8603 48.6338 56.8603 48.5564C56.8603 48.4414 56.4578 47.5875 56.3312 47.4338C56.2236 47.3033 56.1724 47.3147 55.7179 47.5705ZM30.7912 50.6853C30.7066 51.044 30.6551 51.3552 30.6768 51.3768C30.6984 51.3985 30.9961 51.4696 31.3381 51.5347C31.7989 51.6225 31.9686 51.6276 31.9932 51.5543C32.1116 51.2009 32.2784 50.4212 32.2431 50.3858C32.1785 50.3213 31.2339 50.0358 31.08 50.0344C30.9825 50.0334 30.9021 50.2145 30.7912 50.6853ZM56.6277 50.1955C56.3812 50.2751 56.1598 50.36 56.1356 50.3843C56.099 50.4208 56.2631 51.1941 56.3839 51.5543C56.4085 51.6276 56.5782 51.6225 57.039 51.5347C57.381 51.4696 57.6787 51.3985 57.7003 51.3768C57.722 51.3552 57.6705 51.044 57.5859 50.6853C57.4118 49.9466 57.4066 49.944 56.6277 50.1955ZM30.3962 54.3504L31.7323 54.3001L31.7822 52.9883L31.3789 52.933C31.157 52.9027 30.8452 52.8778 30.6858 52.8778H30.3962V54.3504ZM56.9249 52.9405L56.6017 52.9744V53.6064C56.6017 54.3411 56.604 54.3432 57.4277 54.3432H57.9809V52.8778L57.6145 52.8922C57.4131 52.9003 57.1028 52.922 56.9249 52.9405ZM30.9817 55.716C30.7585 55.7472 30.5606 55.7904 30.5419 55.8122C30.5232 55.834 30.5475 56.154 30.5958 56.5234C30.6822 57.1822 30.6881 57.1943 30.9064 57.153C31.0287 57.1298 31.3365 57.0852 31.5903 57.0538L32.0516 56.9968L31.9933 56.5105C31.9613 56.243 31.9143 55.9369 31.8889 55.8302C31.8393 55.6208 31.7465 55.6092 30.9817 55.716ZM56.4899 55.823C56.4636 55.9336 56.4159 56.2422 56.384 56.5088L56.3259 56.9935L56.8302 57.0539C57.1075 57.0872 57.4168 57.134 57.5176 57.1578C57.6863 57.1978 57.7057 57.1553 57.7632 56.6192C57.7974 56.2991 57.8438 55.9893 57.8663 55.9307C57.9156 55.8022 57.7582 55.7525 57.0653 55.6784C56.5625 55.6245 56.5355 55.6313 56.4899 55.823ZM31.4006 58.4851C31.1708 58.5237 30.9665 58.5715 30.9467 58.5913C30.9268 58.6112 30.9552 58.9275 31.0098 59.2943L31.109 59.9612L31.3775 59.9151C31.5253 59.8896 31.8338 59.8426 32.0632 59.8105C32.4736 59.753 32.4794 59.7479 32.4338 59.4828C32.4084 59.3347 32.3618 59.0294 32.3303 58.8042C32.2663 58.3463 32.2536 58.3419 31.4006 58.4851ZM56.0438 58.9615C56.0095 59.2826 55.9635 59.5918 55.9418 59.6484C55.915 59.7183 56.1168 59.7834 56.5666 59.8503C56.932 59.9047 57.2443 59.9358 57.2605 59.9196C57.3072 59.873 57.4637 58.9952 57.4637 58.7802C57.4637 58.5655 57.3716 58.5291 56.5911 58.4356L56.1063 58.3775L56.0438 58.9615ZM31.7909 61.2587C31.4198 61.3156 31.2592 61.376 31.2868 61.4482C31.3091 61.5064 31.3556 61.8167 31.3899 62.1376L31.4524 62.7211L31.851 62.6655C32.0701 62.6349 32.3794 62.5874 32.5382 62.56L32.8269 62.51L32.7689 62.0255C32.6812 61.2939 32.6332 61.1521 32.4773 61.1641C32.3994 61.1702 32.0906 61.2127 31.7909 61.2587ZM55.7141 61.2109C55.6886 61.2521 55.6407 61.5613 55.6075 61.898L55.5472 62.51L56.0529 62.5695C56.331 62.6021 56.6218 62.6471 56.6992 62.6694C56.875 62.7201 56.9144 62.6173 56.9902 61.9096C57.0593 61.264 57.0878 61.2914 56.2457 61.1927C55.9789 61.1615 55.7396 61.1696 55.7141 61.2109Z" fill="#B86F28"/>
</svg>
