<svg width="88" height="87" viewBox="0 0 88 87" fill="none" xmlns="http://www.w3.org/2000/svg">
<circle cx="44" cy="43.5" r="43" stroke="#FDDE9B" stroke-linecap="round" stroke-dasharray="6 6"/>
<path d="M83.5 44C83.5 66.0914 65.5914 84 43.5 84C21.4086 84 3.5 66.0914 3.5 44C3.5 21.9086 21.4086 4 43.5 4C65.5914 4 83.5 21.9086 83.5 44Z" fill="#FDDE9B"/>
<path fill-rule="evenodd" clip-rule="evenodd" d="M33.5174 24.1284C33.124 24.3223 32.9144 24.6709 32.9144 25.1313C32.9144 25.3462 33.0979 26.2954 33.3222 27.2408C33.5466 28.1861 33.7855 29.3815 33.8531 29.8971C33.9976 30.9975 34.0194 33.3284 33.8948 34.3504C33.7015 35.9373 33.2555 37.7334 32.7187 39.0876C32.5471 39.5207 32.4066 39.9045 32.4066 39.9405C32.4066 40.0402 33.8316 40.8254 34.7968 41.2574C40.2968 43.7195 46.6785 43.73 52.1495 41.2859C53.1249 40.8502 54.5949 40.0414 54.5949 39.9405C54.5949 39.9045 54.4516 39.5136 54.2766 39.0719C53.3321 36.6894 52.8753 33.7814 53.0377 31.1867C53.126 29.7755 53.2609 28.9577 53.7372 26.9446C53.9512 26.0407 54.1262 25.2175 54.1262 25.1154C54.1262 24.7782 53.8305 24.3228 53.5032 24.1558C53.199 24.0006 53.0641 23.9985 43.4844 24.0003C34.6992 24.0018 33.7494 24.0141 33.5174 24.1284ZM24.1064 33.6131C23.5838 33.8889 23.3604 34.5865 23.6249 35.1161C23.6936 35.2536 24.37 35.9902 25.128 36.7529L26.5063 38.1396H25.4688C24.5832 38.1396 24.3862 38.1627 24.123 38.2969C23.7763 38.4738 23.5 38.9239 23.5 39.3116C23.5 39.6992 23.7763 40.1493 24.123 40.3262C24.4136 40.4744 24.5797 40.4835 27.0158 40.4835C29.4518 40.4835 29.6179 40.4744 29.9085 40.3262C30.107 40.225 30.273 40.059 30.3742 39.8605C30.5225 39.5699 30.5315 39.4038 30.5315 36.9677C30.5315 34.5317 30.5225 34.3656 30.3742 34.075C30.1974 33.7283 29.7473 33.452 29.3596 33.452C28.9719 33.452 28.5218 33.7283 28.3449 34.075C28.2107 34.3382 28.1877 34.5351 28.1877 35.4208V36.4583L26.8009 35.08C26.0381 34.322 25.3016 33.6456 25.1641 33.5769C24.8331 33.4115 24.4642 33.4242 24.1064 33.6131ZM57.0763 33.6131C56.8978 33.7074 56.7231 33.8871 56.6271 34.0753C56.4791 34.3655 56.47 34.5327 56.47 36.9735C56.47 39.467 56.4762 39.5747 56.6355 39.8581C56.7265 40.0201 56.9334 40.227 57.0953 40.318C57.3788 40.4773 57.4864 40.4835 59.98 40.4835C62.4218 40.4835 62.5879 40.4745 62.8785 40.3262C63.2252 40.1493 63.5015 39.6992 63.5015 39.3116C63.5015 38.9239 63.2252 38.4738 62.8785 38.2969C62.6153 38.1627 62.4183 38.1396 61.5327 38.1396H60.4952L61.8735 36.7529C62.6315 35.9902 63.3079 35.2536 63.3766 35.1161C63.8532 34.1621 62.7914 33.1003 61.8374 33.5769C61.6999 33.6456 60.9633 34.322 60.2006 35.08L58.8138 36.4583V35.4208C58.8138 34.5351 58.7908 34.3382 58.6566 34.075C58.3683 33.5099 57.6625 33.3036 57.0763 33.6131ZM44.0497 38.2969C44.3963 38.4738 44.6727 38.9239 44.6727 39.3116C44.6727 39.9087 44.0951 40.4835 43.495 40.4835C43.1316 40.4835 42.6489 40.1796 42.477 39.8427C42.1885 39.2771 42.3696 38.6597 42.9221 38.3252C43.2961 38.0988 43.6441 38.09 44.0497 38.2969ZM31.1565 42.7706C30.8283 43.6254 30.43 45.018 30.2204 46.0435C30.0193 47.0275 29.8357 48.5597 29.9149 48.5934C29.9456 48.6064 30.3517 48.5436 30.8175 48.4536C35.0443 47.6372 39.4453 48.6975 42.8953 51.3637L43.5008 51.8316L44.1062 51.3637C45.0146 50.6618 45.749 50.2086 46.8056 49.6984C49.7435 48.2796 53.026 47.841 56.1575 48.449C56.6087 48.5366 57.0149 48.6084 57.0603 48.6086C57.1728 48.6089 57.0673 47.5971 56.8174 46.2812C56.5981 45.1262 56.2126 43.7363 55.8432 42.769L55.5998 42.1317L55.1169 42.408C51.9009 44.2486 48.0562 45.3266 44.243 45.4566C39.9416 45.6034 35.426 44.4804 31.8072 42.3643L31.4031 42.128L31.1565 42.7706ZM32.2503 50.6114C31.8077 50.6666 30.7628 50.879 30.2681 51.0143L29.8094 51.1397L29.8622 51.808C29.9436 52.8373 30.118 53.9956 30.3428 55C30.5559 55.9527 32.7855 62.8841 33.0426 63.3935C33.1352 63.5768 33.3047 63.7439 33.4983 63.8427C33.7962 63.9947 33.9513 64 38.0677 64H42.3288L42.3234 53.8824L41.6995 53.3746C40.1402 52.1054 38.301 51.2329 36.2552 50.7918C35.6685 50.6653 35.1504 50.6215 34.0082 50.6023C33.1918 50.5886 32.4007 50.5927 32.2503 50.6114ZM51.3626 50.6797C48.9729 51.0692 46.6777 52.1388 44.9564 53.6652L44.6727 53.9167V64H48.9338C53.0502 64 53.2053 63.9947 53.5032 63.8427C53.6968 63.7439 53.8663 63.5768 53.9589 63.3935C54.2169 62.8825 56.4462 55.9504 56.6534 55.0153C56.8807 53.9888 57.0642 52.7796 57.1401 51.8067L57.1924 51.1372L56.6945 51.0057C55.4824 50.6854 55.0722 50.6319 53.5793 50.5996C52.4831 50.5761 51.8613 50.5985 51.3626 50.6797Z" fill="#B86F28"/>
</svg>
