<svg width="88" height="87" viewBox="0 0 88 87" fill="none" xmlns="http://www.w3.org/2000/svg">
<circle cx="44" cy="43.5" r="43" stroke="#FDDE9B" stroke-linecap="round" stroke-dasharray="6 6"/>
<path d="M83.5 44C83.5 66.0914 65.5914 84 43.5 84C21.4086 84 3.5 66.0914 3.5 44C3.5 21.9086 21.4086 4 43.5 4C65.5914 4 83.5 21.9086 83.5 44Z" fill="#FDDE9B"/>
<path fill-rule="evenodd" clip-rule="evenodd" d="M32.236 24.0142C27.1128 24.4655 23.4367 26.5574 21.7078 30.0052C20.4792 32.4555 20.1766 35.6301 20.852 38.9859C21.1063 40.2502 21.7359 41.8121 22.5788 43.271L22.7443 43.5574L29.1306 43.5585L29.1852 42.9184C29.2151 42.5664 29.3774 40.0816 29.5457 37.3968C29.8806 32.0543 29.8715 32.1119 30.464 31.6133C31.2854 30.9221 32.5873 31.1429 33.0935 32.0593C33.1937 32.2408 34.3997 35.8261 35.7735 40.0267C37.1474 44.2274 38.2973 47.6952 38.329 47.7331C38.3607 47.771 39.0323 45.248 39.8215 42.1264C40.6554 38.8277 41.3305 36.3303 41.4335 36.163C41.6384 35.8303 42.2052 35.4742 42.6629 35.3906C43.302 35.2739 44.1499 35.7074 44.4597 36.3093C44.5247 36.4357 44.9857 38.0985 45.484 40.0047C45.9823 41.9108 46.4139 43.4691 46.4429 43.4678C46.4719 43.4663 46.8533 42.8678 47.2903 42.1375C47.7274 41.4072 48.2294 40.6776 48.4059 40.5161C48.9255 40.0403 49.7752 39.9439 50.4177 40.2878C50.533 40.3495 51.0747 40.8126 51.6216 41.3171L52.6158 42.2341H54.4594C56.1974 42.2341 56.3255 42.2455 56.692 42.4328C56.9058 42.5421 57.2023 42.7841 57.3508 42.9707C57.6 43.2838 57.6209 43.3633 57.6209 44C57.6209 44.6367 57.6 44.7162 57.3508 45.0293C57.2023 45.2159 56.9058 45.4579 56.692 45.5672C56.3183 45.7581 56.2139 45.7659 54.0144 45.7659C52.4803 45.7659 51.6081 45.7307 51.3694 45.6592C51.1592 45.5962 50.8002 45.3553 50.494 45.0718C50.2009 44.8005 49.9435 44.6259 49.9028 44.6709C49.8633 44.7147 49.2592 45.684 48.5605 46.8249C47.1655 49.1031 46.9572 49.3818 46.4808 49.6079C45.9831 49.844 45.1246 49.7498 44.7005 49.4125C44.2393 49.0457 44.0728 48.626 43.4896 46.3607C43.2017 45.2422 42.9438 44.4016 42.9082 44.4652C42.873 44.5281 42.2595 46.9145 41.5447 49.7685C40.4334 54.206 40.2079 55.009 39.9877 55.313C39.3455 56.1996 37.9524 56.2388 37.2386 55.3904C37.0701 55.1902 36.5284 53.6532 35.1913 49.5811C32.6446 41.8257 32.7818 42.2219 32.7683 42.5873C32.762 42.7572 32.7075 43.5535 32.6471 44.3567C32.5212 46.0331 32.4103 46.3509 31.8014 46.7813L31.4265 47.0462L25.2695 47.1345L25.8929 47.885C27.7582 50.1309 30.5791 53.0215 34.9136 57.1292C36.2818 58.4257 38.2754 60.345 39.3438 61.3942C41.383 63.3967 41.8733 63.7672 42.7177 63.9436C43.7681 64.1629 44.5937 63.7638 45.9527 62.3798C46.4455 61.8777 48.0408 60.3308 49.4977 58.9421C57.7483 51.0777 61.1496 47.3331 63.3735 43.6654C64.7907 41.3284 65.378 39.6045 65.6063 37.113C65.7689 35.337 65.7045 34.0499 65.3767 32.5216C64.7241 29.4801 62.8083 27.0152 60.0048 25.6104C58.0145 24.6131 55.3867 24.0089 53.0737 24.0166C49.7202 24.0278 46.4335 25.3711 43.9918 27.728L43.0963 28.5925L42.2008 27.728C39.8572 25.4657 36.7811 24.1572 33.4722 24.0151C33.0108 23.9953 32.4546 23.9949 32.236 24.0142Z" fill="#B86F28"/>
</svg>
