<svg width="88" height="87" viewBox="0 0 88 87" fill="none" xmlns="http://www.w3.org/2000/svg">
<circle cx="44" cy="43.5" r="43" stroke="#FDDE9B" stroke-linecap="round" stroke-dasharray="6 6"/>
<path d="M84.5 44C84.5 66.0914 66.5914 84 44.5 84C22.4086 84 4.5 66.0914 4.5 44C4.5 21.9086 22.4086 4 44.5 4C66.5914 4 84.5 21.9086 84.5 44Z" fill="#FDDE9B"/>
<path fill-rule="evenodd" clip-rule="evenodd" d="M56.1272 24.0481C55.4836 24.1475 54.4257 24.4836 53.8604 24.7683C52.1061 25.6516 50.8802 27.1791 50.3617 29.128C50.185 29.792 50.1849 29.7979 50.1849 36.0868V42.3809L50.4042 43.0846C50.6646 43.9197 50.919 44.4969 51.2297 44.9574C51.4415 45.2712 51.4521 45.3217 51.384 45.6957C51.2385 46.4968 51.5515 47.429 52.1753 48.0529C52.8913 48.7689 53.601 48.9571 55.1198 48.8337C59.8303 48.4512 63.0361 46.5328 64.1061 43.4562C64.5275 42.2444 64.5411 41.9851 64.5145 35.6813L64.4899 29.8708L64.2819 29.1116C63.4379 26.0307 60.9147 24.1104 57.5737 24.0061C57.0361 23.9894 56.3852 24.0082 56.1272 24.0481ZM44.3753 29.2085C43.1249 29.6528 41.7118 29.8048 38.2221 29.8705C34.6915 29.9369 33.7674 30.0709 32.4752 30.7035C31.5803 31.1416 30.7692 31.9454 30.2974 32.8615C30.1077 33.23 29.9156 33.5065 29.8493 33.5065C29.6108 33.5065 28.9785 33.8955 28.666 34.2346C28.2578 34.6773 28.0705 35.0448 27.83 35.8746C27.5389 36.8794 27.4573 37.8636 27.4852 40.0353C27.5095 41.9338 27.5159 42.0021 27.707 42.4114L27.9038 42.8328L28.1333 42.4697C28.4173 42.0204 28.805 41.7447 29.3273 41.6206C29.7872 41.5114 29.7697 41.553 29.8898 40.2832C29.9718 39.417 30.1623 38.9958 30.6358 38.6348C31.3059 38.1236 32.09 38.0793 32.9332 38.505C34.7238 39.4088 35.8824 39.5923 40.3722 39.6831C43.7647 39.7517 44.0654 39.7814 45.2053 40.1607C46.2619 40.5123 47.2792 41.4011 47.7749 42.4056C48.0092 42.8807 48.035 42.8658 48.2696 42.1186C48.4003 41.7025 48.4256 41.4037 48.425 40.2812C48.424 38.2086 48.2591 37.1573 47.7217 35.7974L47.4745 35.1718L47.709 34.7887C48.5148 33.4726 48.5124 31.6194 47.7032 30.4086C47.5122 30.1229 47.3919 30.0207 47.2238 30.0015C46.8171 29.9551 46.6324 30.0556 46.3845 30.4584C46.1693 30.8083 45.5848 31.3955 45.4518 31.3955C45.4229 31.3955 45.4468 31.2119 45.505 30.9875C45.636 30.4823 45.6394 29.5235 45.5106 29.3558C45.3847 29.1917 45.1084 29.0484 44.9319 29.0555C44.8538 29.0586 44.6033 29.1275 44.3753 29.2085ZM57.1411 31.3548C57.4129 31.4856 57.8044 31.7753 58.0793 32.0492C58.4358 32.4043 58.6426 32.544 58.9259 32.6211C60.2446 32.9803 61.1461 33.8449 61.6108 35.1961C61.7912 35.7211 61.8229 35.9413 61.8228 36.6732C61.8227 38.0885 61.3979 39.3113 60.5143 40.4408L60.0841 40.9904L60.3899 41.082C60.9288 41.2434 61.1018 41.7492 60.7558 42.1514C60.5402 42.402 60.392 42.4082 58.9811 42.2257C57.5874 42.0454 57.6128 42.0775 57.6128 40.4959V39.2789L57.8415 39.0822C58.0257 38.9237 58.1245 38.8942 58.3497 38.9302C58.7461 38.9936 58.9029 39.2206 58.9029 39.7312C58.9029 39.9629 58.9338 40.1525 58.9717 40.1525C59.174 40.1525 59.9354 39.007 60.1995 38.3054C60.6385 37.1389 60.6117 36 60.1242 35.1094C59.8984 34.697 59.33 34.132 59.1408 34.132C59.1063 34.132 59.0417 34.3774 58.9972 34.6772C58.7801 36.1399 57.7065 37.25 56.264 37.5033C54.9339 37.7368 53.4849 36.9707 52.8616 35.7044C52.6209 35.2157 52.6087 35.1474 52.6087 34.2901C52.6087 33.4678 52.6272 33.3515 52.8215 32.9563C53.2232 32.1392 53.8294 31.5829 54.6807 31.2503C55.0397 31.11 55.2399 31.0861 55.8926 31.1063C56.5636 31.127 56.7407 31.1622 57.1411 31.3548ZM54.9935 32.5748C54.5364 32.782 54.317 32.9926 54.0866 33.4453C53.8686 33.8734 53.8316 34.6016 54.0063 35.0199C54.3786 35.9109 55.3718 36.3943 56.285 36.1288C57.7424 35.7051 58.1628 33.8328 57.0201 32.8547C56.4805 32.3929 55.6484 32.278 54.9935 32.5748ZM31.5655 39.6184C31.3187 39.7379 31.2509 39.9464 31.1576 40.8718C31.0684 41.7559 30.9358 42.181 30.6536 42.4876C30.4421 42.7174 30.0549 42.8891 29.7481 42.8891C29.5871 42.8891 29.4571 42.9614 29.3155 43.1297C29.1193 43.363 29.1131 43.4028 29.1137 44.4394C29.1145 45.7702 29.2175 46.7036 29.4677 47.6485C30.1751 50.3197 32.0748 52.3407 34.7603 53.2787C35.8148 53.647 36.6674 53.7845 37.9093 53.7867C39.5327 53.7895 40.7921 53.5094 42.1384 52.8461C44.4619 51.7013 45.998 49.695 46.5592 47.0722C46.6583 46.609 46.7264 45.8838 46.7585 44.9498C46.801 43.711 46.79 43.4881 46.6716 43.192C46.3629 42.4205 45.6317 41.7248 44.829 41.4389C43.9249 41.1169 43.5227 41.0794 40.255 41.0121C35.7202 40.9187 34.3624 40.6989 32.4579 39.75C31.981 39.5123 31.8305 39.4901 31.5655 39.6184ZM36.74 43.863C36.9171 44.04 36.9319 44.1128 36.9319 44.8048C36.9319 45.4967 36.9171 45.5695 36.74 45.7465C36.5036 45.9829 36.0896 46.0021 35.8264 45.789C35.6533 45.6488 35.6418 45.5877 35.6418 44.8048C35.6418 44.0218 35.6533 43.9607 35.8264 43.8205C36.0896 43.6074 36.5036 43.6266 36.74 43.863ZM39.9387 43.7196C40.1708 43.8086 40.294 44.185 40.294 44.8048C40.294 45.4246 40.1708 45.8009 39.9387 45.8899C39.6667 45.9943 39.3456 45.9354 39.1568 45.7465C38.9797 45.5695 38.9648 45.4967 38.9648 44.8048C38.9648 44.1128 38.9797 44.04 39.1568 43.863C39.3456 43.6741 39.6667 43.6152 39.9387 43.7196ZM39.1306 48.4558C39.6538 48.6956 40.1808 49.1502 40.2486 49.4204C40.3155 49.687 40.1172 50.0396 39.8344 50.1568C39.5602 50.2704 39.3599 50.2198 39.0496 49.9587C38.584 49.5669 37.927 49.4291 37.4257 49.6182C37.3047 49.6638 37.023 49.8265 36.8 49.9797C36.4741 50.2034 36.351 50.2474 36.1745 50.2034C35.7354 50.0937 35.4952 49.6477 35.6845 49.2939C35.8784 48.9317 36.4689 48.5294 37.1274 48.311C37.6299 48.1444 38.6049 48.2148 39.1306 48.4558ZM41.4026 54.5943C40.1388 55.0515 38.2248 55.2577 36.7756 55.0927C35.875 54.9902 35.659 54.9443 34.641 54.6398L33.9529 54.434L33.6245 54.786C33.444 54.9796 33.1203 55.2552 32.9052 55.3986C32.6902 55.5419 32.5021 55.6686 32.4873 55.6801C32.4266 55.727 32.9973 56.4687 33.4164 56.8878C34.2095 57.6809 35.2556 58.2944 36.3064 58.5828C36.6958 58.6897 37.0981 58.7216 38.0266 58.7192C39.1441 58.7163 39.2872 58.6991 39.864 58.4993C41.1504 58.0535 42.0996 57.3949 42.9191 56.3796C43.1955 56.0372 43.4216 55.7358 43.4216 55.7098C43.4216 55.6839 43.2721 55.5794 43.0893 55.4776C42.9065 55.3759 42.5635 55.0953 42.3269 54.8541L41.8969 54.4154L41.4026 54.5943ZM30.2859 56.4254C27.5117 57.2822 26.7395 57.6355 25.8904 58.4364C24.8916 59.3787 24.5 60.5198 24.5 62.4882V63.5429L24.9571 64H50.9397L51.4166 63.5231L51.3742 62.2173C51.3106 60.2566 51.0328 59.4847 50.0316 58.4861C49.1167 57.5735 48.1947 57.1697 44.8273 56.2063C44.7484 56.1837 44.5901 56.3511 44.3581 56.7024C43.9167 57.3707 42.9854 58.3167 42.3363 58.7561C41.6868 59.1958 40.7222 59.6446 39.9408 59.8708C39.3882 60.0308 39.1555 60.051 37.9093 60.0472C36.6086 60.0432 36.4498 60.0269 35.8148 59.8316C35.0385 59.593 34.2222 59.2021 33.5308 58.738C32.9069 58.3192 31.9664 57.3618 31.5377 56.7089C31.347 56.4187 31.1545 56.1845 31.1099 56.1886C31.0652 56.1927 30.6945 56.2992 30.2859 56.4254Z" fill="#B86F28"/>
</svg>
