<svg width="88" height="87" viewBox="0 0 88 87" fill="none" xmlns="http://www.w3.org/2000/svg">
<circle cx="44" cy="43.5" r="43" stroke="#FDDE9B" stroke-linecap="round" stroke-dasharray="6 6"/>
<path d="M84.5 44C84.5 66.0914 66.5914 84 44.5 84C22.4086 84 4.5 66.0914 4.5 44C4.5 21.9086 22.4086 4 44.5 4C66.5914 4 84.5 21.9086 84.5 44Z" fill="#FDDE9B"/>
<path fill-rule="evenodd" clip-rule="evenodd" d="M44.0281 24.0857C42.4641 24.5439 41.4931 26.0345 41.76 27.5674C41.9358 28.5764 42.6206 29.476 43.5419 29.9078C43.938 30.0935 44.0828 30.1173 44.8117 30.1173C45.5814 30.1173 45.6676 30.101 46.1493 29.8639C48.4695 28.7216 48.4527 25.4145 46.1209 24.3016C45.5023 24.0064 44.6124 23.9146 44.0281 24.0857ZM39.5547 30.3343C39.0753 30.4928 38.61 30.8784 38.3751 31.3118C38.0281 31.9521 35.0263 39.9201 34.9366 40.4391C34.8344 41.03 35.0012 41.6738 35.363 42.0859C35.8233 42.6102 36.1325 42.7045 39.3745 43.3102L42.386 43.8729L42.3859 44.0718C42.3858 44.1812 42.2274 45.7284 42.034 47.5101C41.8405 49.2918 41.6823 50.9123 41.6823 51.1113C41.6823 51.3419 41.7531 51.6133 41.8777 51.8599C42.56 53.2094 44.623 52.9795 44.9599 51.5165C45.0061 51.316 45.2552 49.1882 45.5134 46.7881C46.0306 41.9826 46.0302 42.012 45.5776 41.4629C45.222 41.0316 44.8781 40.9 43.3939 40.6276C42.646 40.4904 42.0098 40.3567 41.9801 40.3305C41.9503 40.3042 42.0647 39.9519 42.2342 39.5476C42.4037 39.1433 42.5424 38.7792 42.5424 38.7386C42.5424 38.698 42.1341 37.7972 41.635 36.7369C40.6168 34.5738 40.4532 34.1999 40.6046 34.3828C42.0236 36.0972 43.9317 38.3246 44.0837 38.4441C44.5351 38.7993 44.66 38.7994 47.8297 38.4477C50.3047 38.1732 50.8499 38.0905 51.1439 37.9452C52.1945 37.4258 52.1735 36.0052 51.1075 35.4769L50.7195 35.2847L48.3708 35.5447C47.079 35.6876 45.9147 35.8216 45.7833 35.8424C45.5552 35.8785 45.4822 35.8062 44.153 34.225C43.3877 33.3148 42.7738 32.5584 42.7888 32.5443C42.8038 32.5302 43.2208 32.8063 43.7153 33.1578C44.2099 33.5093 44.8263 33.9449 45.0852 34.1256L45.5558 34.4545L47.2356 34.259C48.1594 34.1516 48.943 34.055 48.9769 34.0444C49.0108 34.0338 47.1283 33.1844 44.7934 32.1568C40.3544 30.2031 40.1579 30.1348 39.5547 30.3343ZM51.4176 32.0729C51.2886 32.142 51.1409 32.2404 51.0894 32.2917C51.0128 32.368 50.4401 33.7667 50.4401 33.8775C50.4401 33.8953 50.5468 33.9098 50.6772 33.9098C50.9524 33.9098 51.8035 34.1828 52.036 34.3456C52.1235 34.407 52.2183 34.4572 52.2465 34.4572C52.2746 34.4572 52.4121 34.14 52.5519 33.7522C52.8505 32.924 52.8365 32.5949 52.4879 32.2462C52.208 31.9664 51.7541 31.8928 51.4176 32.0729ZM58.377 32.8821C58.1232 33.0386 57.2996 33.7736 56.414 34.6338L55.8586 35.1733L54.7461 35.0107C53.2283 34.7889 53.2941 34.7815 53.1809 35.1861C53.1014 35.4701 53.1075 35.5969 53.2195 35.9819C53.3501 36.4315 53.3482 37.1993 53.2157 37.5264C53.1697 37.6398 53.2033 37.6632 53.4116 37.6632C53.7175 37.6632 53.7152 37.671 53.1547 38.5399C52.9214 38.9014 52.5702 39.5118 52.3741 39.8964C51.9607 40.7071 51.9105 41.0845 52.0136 42.6113C52.0768 43.5473 52.2868 44.9685 52.3896 45.1555C52.4233 45.217 52.4868 45.0754 52.5474 44.8036C52.9749 42.8867 54.1827 40.3075 55.4627 38.578L55.8563 38.0463L56.5773 38.0992C57.4376 38.1623 57.7635 38.0773 58.0911 37.7043C58.5299 37.2045 58.6038 36.4372 58.2557 35.9948C58.1719 35.8882 58.1038 35.7713 58.1043 35.7351C58.1049 35.6989 58.4359 35.3772 58.8401 35.0202C59.5277 34.4129 59.8236 34.0216 59.8236 33.7196C59.8236 33.4489 59.5871 33.0462 59.3396 32.8953C59.0172 32.6987 58.6819 32.6941 58.377 32.8821ZM49.6799 39.6366L49.0368 39.7115L48.9862 39.9819C48.8977 40.4535 49.0101 43.5223 49.1476 44.388C49.4564 46.3328 49.7687 47.3402 51.1803 50.9447C51.7251 52.336 52.1575 53.4877 52.1411 53.504C52.1248 53.5205 51.8506 53.4905 51.5318 53.4376L50.9523 53.3414L50.4075 51.9458C50.0301 50.9789 49.847 50.5946 49.8115 50.6946C49.7832 50.7742 49.7145 51.3203 49.6587 51.9084C49.6031 52.4965 49.5315 53.0197 49.4998 53.071C49.4559 53.1419 49.0605 53.1146 47.8494 52.9569C46.9734 52.8429 46.1837 52.7341 46.0943 52.715C45.9759 52.6899 45.8715 52.761 45.7088 52.9773C45.586 53.1405 45.3481 53.3771 45.1801 53.5032L44.8746 53.7324L45.34 53.7781C45.8907 53.8323 46.218 54.036 46.4123 54.4455C46.6718 54.9925 46.4502 55.6091 45.8894 55.9001C45.62 56.0399 45.5232 56.0412 43.3806 55.9315C40.9398 55.8065 40.7877 55.7737 40.5062 55.312C40.3212 55.0088 40.3065 54.4791 40.4741 54.1551C40.6205 53.8718 41.0174 53.6158 41.3108 53.6154C41.4291 53.6152 41.5259 53.6038 41.5259 53.59C41.5259 53.5761 41.3632 53.3951 41.1645 53.1877C40.9658 52.9803 40.7179 52.6246 40.6139 52.3973C40.4024 51.9351 40.4605 51.9604 39.2582 51.8092C38.8496 51.7578 38.5043 51.7069 38.4909 51.6962C38.4775 51.6854 38.6974 50.9507 38.9797 50.0637C39.2619 49.1766 39.4928 48.3205 39.4928 48.1611C39.4928 47.8924 39.1808 44.6703 39.1533 44.6547C39.1153 44.6332 35.8543 44.0128 35.8421 44.0247C35.8342 44.0327 35.9167 44.9223 36.0256 46.0017L36.2236 47.9643L35.7326 49.5191C35.4626 50.3741 35.2095 51.0955 35.1704 51.122C35.1311 51.1486 34.8963 51.1915 34.6485 51.2174C33.5474 51.3325 32.2578 52.0002 31.3146 52.9436C30.3295 53.9289 29.774 55.0314 29.5556 56.435C29.3068 58.0336 29.9097 60.0169 31.0251 61.2691L31.457 61.7541L30.9797 62.2511C30.2954 62.9638 30.1989 63.2833 30.5441 63.6936C30.7776 63.9711 31.1772 64.0762 31.45 63.932C31.5513 63.8784 31.9032 63.5735 32.2321 63.2545L32.8301 62.6743L33.1424 62.8337C33.7072 63.1219 34.6909 63.3288 35.499 63.3297C36.3082 63.3305 38.301 63.0552 46.7193 61.7796L51.6391 61.034L52.9645 62.4099C53.6934 63.1667 54.3956 63.8405 54.5248 63.9074C54.9578 64.1313 55.4074 63.9381 55.5937 63.448C55.725 63.1026 55.5876 62.8891 54.5356 61.8033L53.5545 60.7906L53.998 60.6104C55.2119 60.117 56.0256 59.0877 56.2365 57.7787C56.4165 56.6613 56.0028 55.4248 55.193 54.6599C54.9659 54.4453 54.7189 54.2356 54.6442 54.194C54.499 54.1131 52.2152 48.3765 51.7209 46.8512C51.1082 44.9606 50.8778 43.2862 50.9204 41.0334L50.9486 39.5399L50.6357 39.5508C50.4637 39.5568 50.0335 39.5954 49.6799 39.6366ZM36.6891 53.7687C38.502 54.329 39.5993 56.2242 39.1753 58.0632C38.956 59.0149 38.0906 60.0944 37.2068 60.519C35.1858 61.49 32.7996 60.4536 32.1396 58.3181C31.7469 57.0473 32.1022 55.6271 33.0502 54.6792C33.9987 53.7307 35.4175 53.3756 36.6891 53.7687Z" fill="#B86F28"/>
</svg>
