<svg width="88" height="87" viewBox="0 0 88 87" fill="none" xmlns="http://www.w3.org/2000/svg">
<circle cx="44" cy="43.5" r="43" stroke="#FDDE9B" stroke-linecap="round" stroke-dasharray="6 6"/>
<path d="M84.5 43C84.5 65.0914 66.5914 83 44.5 83C22.4086 83 4.5 65.0914 4.5 43C4.5 20.9086 22.4086 3 44.5 3C66.5914 3 84.5 20.9086 84.5 43Z" fill="#FDDE9B"/>
<path fill-rule="evenodd" clip-rule="evenodd" d="M42.1222 23.0632C37.6708 23.662 33.7083 25.559 30.574 28.5921C27.2528 31.8062 25.1085 36.1746 24.5946 40.7743C24.5426 41.2396 24.5 42.2336 24.5 42.9831C24.5 46.1348 25.1534 48.991 26.5095 51.7667C29.5561 58.0028 35.4689 62.1393 42.4505 62.9187C43.9839 63.0898 46.6278 62.9814 48.2106 62.6824C54.4453 61.5044 59.6864 57.5081 62.5198 51.7715C64.8253 47.1037 65.184 41.589 63.5081 36.5766C62.5337 33.6621 60.918 31.0726 58.6737 28.8284C55.772 25.9265 52.2257 24.0467 48.2106 23.282C47.1115 23.0725 46.6034 23.0307 44.848 23.0051C43.7106 22.9883 42.484 23.0145 42.1222 23.0632ZM38.5504 35.1569C38.875 35.2702 39.1962 35.4958 39.5885 35.8858C40.2396 36.5332 40.4773 37.101 40.4773 38.0088C40.4773 40.1237 38.231 41.5871 36.3303 40.7105C33.8288 39.5569 33.9078 36.1851 36.4604 35.1633C36.987 34.9526 37.9565 34.9496 38.5504 35.1569ZM52.6066 35.1747C54.2095 35.7838 54.9735 37.6312 54.2615 39.1764C53.8288 40.1156 53.2204 40.621 52.2115 40.8795C51.4904 41.0642 50.9578 40.9972 50.1845 40.6241C48.852 39.9814 48.2171 38.3719 48.7238 36.9206C48.9356 36.3139 49.8411 35.3878 50.4405 35.1649C51.0302 34.9456 52.0155 34.95 52.6066 35.1747ZM54.4395 47.2833C54.345 47.6699 53.5274 49.347 53.1382 49.9524C51.2072 52.9562 48.2458 54.7938 45.029 54.9845C41.5607 55.1902 38.1298 53.3304 35.9927 50.0865C35.5368 49.3945 34.7064 47.7248 34.5985 47.2833L34.5353 47.0248H54.5026L54.4395 47.2833Z" fill="#B86F28"/>
</svg>
