<svg width="120" height="192" viewBox="0 0 120 192" fill="none" xmlns="http://www.w3.org/2000/svg">
<path fill-rule="evenodd" clip-rule="evenodd" d="M95.5841 6.81336C69.9817 67.4049 63.4769 83.577 63.4769 86.6402C63.4769 88.9247 66.8457 94.1084 72.545 100.592C77.5325 106.266 81.598 112.002 81.5799 113.339C81.5617 114.676 80.2348 118.673 78.6312 122.222C76.3098 127.359 74.9299 128.673 71.8634 128.673C67.222 128.673 67.157 127.892 71.0336 118.807C75.8156 107.601 75.5662 107.217 63.8608 107.732L53.6667 108.181L49.2913 118.992C44.0545 131.934 44.5985 136.471 51.7442 139.458C58.8355 142.421 77.865 142.096 86.2681 138.869C95.0385 135.5 100.197 129.924 103.327 120.434C107.432 107.988 106.809 105.572 96.5801 94.2344C88.251 85.0038 87.4454 83.5284 88.1951 78.8896C89.2047 72.6387 91.6258 69.4738 95.3997 69.4738C98.8078 69.4738 98.7776 69.0746 95.971 77.0635C94.7241 80.6124 93.7039 84.1447 93.7039 84.9127C93.7039 85.6808 98.2592 86.1074 103.825 85.8615L113.947 85.4121L116.974 75.8916L120 66.3696L116.63 62.9892C113.566 59.9169 111.813 59.6118 97.4355 59.6512C88.7331 59.674 81.6131 59.2809 81.6131 58.7769C81.6131 58.2729 85.6515 44.947 90.5875 29.1665C95.5236 13.3845 99.3564 0.266495 99.1055 0.0145176C98.8546 -0.23746 97.2707 2.82118 95.5841 6.81336ZM93.9412 40.6467C91.3976 48.2652 90.0737 54.2443 91.0001 53.9347C92.6022 53.3989 100.195 28.4318 99.0934 27.3237C98.8033 27.0338 96.4848 33.0281 93.9412 40.6467ZM0.0136019 82.689C0.0196473 100.884 0.454917 119.356 0.979357 123.74L1.93302 131.709H15.4264C28.7157 131.709 28.9046 131.761 27.8935 135.125C27.3298 137.002 22.9015 150.475 18.0531 165.063C13.2047 179.65 9.42178 191.771 9.64848 191.997C9.87368 192.223 15.7302 178.922 22.6628 162.438C29.5938 145.955 43.2746 113.828 53.0636 91.0437L70.8598 49.6207L58.7569 50.0594L46.654 50.4996L35.7949 76.6764C29.8235 91.0725 24.4431 102.856 23.8401 102.861C23.2356 102.865 22.5554 91.0847 22.3287 76.684L21.9146 50.4996L10.9573 50.0533L0 49.607L0.0136019 82.689ZM15.9523 145.507C14.5317 150.591 13.5961 154.979 13.8742 155.257C14.1523 155.536 16.2032 151.377 18.4325 146.014C21.3282 139.05 21.9222 136.263 20.5106 136.263C19.3831 136.263 17.4259 140.231 15.9523 145.507Z" fill="url(#paint0_linear_17_2)"/>
<defs>
<linearGradient id="paint0_linear_17_2" x1="120.226" y1="43.5" x2="10.6766" y2="164.902" gradientUnits="userSpaceOnUse">
<stop offset="0.044146" stop-color="#FB0000"/>
<stop offset="1" stop-color="#F9C567"/>
</linearGradient>
</defs>
</svg>
